<?xml version="1.0" standalone="no"?>
<!DOCTYPE svg PUBLIC "-//W3C//DTD SVG 20010904//EN"
 "http://www.w3.org/TR/2001/REC-SVG-20010904/DTD/svg10.dtd">
<svg version="1.0" xmlns="http://www.w3.org/2000/svg"
 width="512.000000pt" height="512.000000pt" viewBox="0 0 512.000000 512.000000"
 preserveAspectRatio="xMidYMid meet">
<metadata>
Created by potrace 1.14, written by Peter Selinger 2001-2017
</metadata>
<g transform="translate(0.000000,512.000000) scale(0.100000,-0.100000)"
fill="#000000" stroke="none">
<path d="M2506 5071 c-4 -7 -2 -10 5 -9 6 2 14 -3 16 -9 5 -14 -55 -7 -71 8
-6 5 -23 9 -39 9 -22 0 -28 -4 -23 -15 3 -9 0 -15 -10 -15 -10 0 -14 6 -10 15
3 9 0 15 -9 15 -8 0 -15 -5 -15 -11 0 -7 -20 -10 -52 -8 -29 2 -68 2 -87 1
-30 -2 -33 -4 -27 -28 5 -19 3 -25 -6 -21 -7 2 -12 12 -10 21 3 16 -3 17 -55
11 -85 -10 -160 -31 -179 -49 -11 -12 -25 -15 -44 -11 -19 4 -67 -7 -147 -34
-124 -41 -313 -127 -313 -142 0 -5 -9 -9 -19 -9 -24 0 -105 -44 -221 -118
-120 -77 -160 -110 -153 -127 4 -11 -2 -15 -20 -15 -32 0 -116 -69 -247 -200
-115 -115 -196 -214 -286 -346 -59 -87 -184 -296 -184 -308 0 -3 -16 -38 -35
-78 -40 -84 -99 -238 -109 -285 -5 -20 -3 -34 5 -38 8 -6 6 -12 -8 -24 -13
-10 -28 -48 -42 -106 -111 -461 -87 -951 69 -1411 51 -151 179 -410 270 -548
64 -97 72 -106 90 -96 11 6 25 8 30 5 5 -3 19 -1 30 5 16 9 18 8 14 -5 -4 -10
-20 -15 -46 -15 -22 0 -38 -4 -36 -9 10 -29 191 -236 293 -335 362 -354 882
-605 1386 -670 519 -68 1006 11 1459 235 541 268 966 713 1199 1257 132 309
190 560 196 860 4 140 2 162 -11 162 -10 0 -14 7 -12 18 2 9 10 16 16 15 8 -2
12 18 12 66 l0 69 -36 17 c-20 9 -46 14 -59 11 -22 -6 -25 -3 -69 58 -12 17
-15 18 -27 5 -16 -16 -21 -81 -24 -314 -1 -82 -2 -155 -3 -161 -1 -7 -20 -11
-44 -11 -24 0 -106 -1 -183 -2 l-140 -2 41 -22 c22 -12 57 -35 78 -51 29 -23
39 -27 46 -17 4 8 13 10 19 7 17 -11 13 -36 -5 -36 -12 0 -14 -4 -7 -12 6 -7
23 -44 37 -82 23 -57 28 -89 33 -198 l6 -130 -29 3 c-16 1 -44 1 -62 1 l-33
-2 30 -38 c17 -20 43 -64 58 -97 25 -55 28 -70 28 -185 0 -107 -3 -134 -23
-186 -45 -119 -153 -206 -290 -235 -125 -26 -308 5 -388 66 l-33 26 -15 -33
c-67 -156 -262 -237 -508 -210 -118 13 -193 41 -276 105 l-67 50 -212 -6
c-248 -7 -283 -1 -357 65 l-48 41 -28 -30 c-16 -17 -50 -41 -77 -54 -54 -26
-45 -26 -435 -21 l-238 2 0 685 0 684 -37 -25 c-20 -13 -68 -34 -106 -45 -58
-18 -86 -21 -180 -17 -142 6 -206 29 -283 101 l-56 52 -45 -44 c-88 -84 -195
-116 -364 -109 -96 4 -114 8 -174 37 -37 19 -85 51 -107 73 -77 77 -123 228
-114 373 2 33 4 81 5 108 l1 47 61 0 61 0 -36 42 c-52 60 -77 135 -83 248 -4
79 -2 105 15 152 26 72 79 143 140 184 47 31 164 74 203 74 25 0 24 14 -4 34
l-22 17 23 -6 c15 -4 24 -1 28 9 3 9 16 16 27 16 20 0 20 0 2 -14 -19 -14 -19
-15 -1 -35 15 -16 31 -21 70 -21 102 0 198 -41 278 -118 l37 -35 49 45 c59 56
109 82 182 97 131 26 283 8 379 -45 24 -13 45 -24 47 -24 2 0 4 16 4 35 l0 35
253 3 c138 1 318 1 400 -1 86 -1 147 2 147 7 0 5 -6 12 -12 14 -10 4 -10 6 0
6 6 1 12 5 12 11 0 5 -7 7 -16 3 -14 -5 -16 -2 -10 23 8 31 26 56 26 36 0 -27
28 -9 47 32 12 24 50 74 84 110 71 77 169 131 264 146 81 13 201 -4 280 -39
78 -35 170 -124 215 -208 19 -35 40 -63 47 -63 7 0 13 -4 13 -10 0 -5 9 -10
21 -10 15 0 19 -5 15 -15 -3 -8 -1 -15 4 -15 6 0 10 5 10 10 0 6 7 10 15 10
18 0 20 -36 3 -43 -7 -3 33 -6 89 -6 61 -1 104 3 108 9 5 8 11 8 19 1 8 -7 97
-10 247 -8 226 2 235 1 277 -21 38 -20 44 -21 65 -8 42 27 125 45 185 40 105
-9 158 -32 223 -96 57 -56 87 -73 76 -44 -3 7 0 19 6 25 16 16 -7 38 -25 23
-10 -7 -18 -8 -28 -1 -11 8 -12 12 -3 16 7 2 13 13 13 23 0 10 5 20 12 22 22
8 -117 244 -251 428 -83 115 -285 322 -420 432 -96 77 -246 178 -266 178 -8 0
-15 4 -15 10 0 13 -58 42 -70 35 -6 -3 -10 -1 -10 6 0 9 -3 9 -14 0 -9 -8 -16
-8 -20 -2 -4 5 -1 13 5 17 12 7 -136 85 -220 115 -29 10 -58 16 -64 12 -5 -3
-7 -1 -4 4 6 10 -24 24 -126 57 -59 20 -58 20 -50 -1 5 -13 2 -15 -12 -9 -11
4 -21 2 -26 -5 -4 -6 -12 -8 -18 -5 -17 11 -13 24 5 22 9 0 19 5 22 13 3 10
-1 12 -17 8 -11 -3 -21 -1 -21 5 0 6 -7 8 -15 5 -8 -4 -17 -3 -19 2 -7 11
-121 40 -176 45 -25 2 -63 9 -85 14 -61 15 -175 21 -175 10 0 -6 6 -8 14 -5
22 9 37 -15 22 -35 -16 -22 -66 -19 -62 4 1 10 5 21 9 24 15 16 5 25 -25 23
-18 -1 -69 2 -114 6 -58 5 -83 4 -88 -4z m59 -21 c3 -5 1 -10 -4 -10 -6 0 -11
5 -11 10 0 6 2 10 4 10 3 0 8 -4 11 -10z m355 -34 c0 -3 -4 -8 -10 -11 -5 -3
-10 -1 -10 4 0 6 5 11 10 11 6 0 10 -2 10 -4z m54 -2 c20 -8 21 -24 2 -24 -8
0 -16 7 -20 15 -6 17 -4 18 18 9z m-474 -8 c0 -16 -14 -36 -25 -36 -7 0 -15
-5 -17 -12 -3 -7 -12 -9 -22 -5 -9 4 -14 11 -11 17 4 6 11 8 16 4 13 -7 41 15
33 27 -3 5 2 9 10 9 9 0 16 -2 16 -4z m340 -6 c0 -5 -5 -10 -11 -10 -5 0 -7 5
-4 10 3 6 8 10 11 10 2 0 4 -4 4 -10z m172 -28 c-7 -2 -12 -13 -12 -24 0 -26
-24 -18 -28 9 -2 14 3 23 15 25 21 5 43 -4 25 -10z m-1232 -72 c0 -5 -2 -10
-4 -10 -3 0 -8 5 -11 10 -3 6 -1 10 4 10 6 0 11 -4 11 -10z m1180 -15 c0 -8 5
-15 10 -15 6 0 10 7 10 15 0 28 28 15 32 -15 4 -24 1 -30 -14 -30 -11 0 -16 5
-13 10 3 6 -1 10 -9 10 -10 0 -16 -10 -17 -27 -2 -24 -2 -25 -6 -5 -3 14 -12
22 -24 22 -14 0 -19 7 -19 25 0 20 5 25 25 25 16 0 25 -6 25 -15z m390 -27 c0
7 3 12 8 12 4 0 7 -16 8 -35 0 -19 -3 -35 -8 -35 -4 0 -8 6 -8 14 0 8 -7 16
-15 20 -8 3 -15 16 -15 28 1 22 1 22 15 4 8 -11 15 -14 15 -8z m-200 2 c0 -5
-4 -10 -10 -10 -5 0 -10 5 -10 10 0 6 5 10 10 10 6 0 10 -4 10 -10z m437 -32
c-3 -8 -6 -5 -6 6 -1 11 2 17 5 13 3 -3 4 -12 1 -19z m-1957 -13 c0 -14 -4
-25 -10 -25 -5 0 -10 9 -10 20 0 12 -5 17 -14 14 -17 -6 -31 -67 -16 -72 5 -2
10 -17 10 -34 0 -27 -3 -30 -22 -23 -13 3 -36 10 -53 15 -16 4 -25 8 -18 9 6
1 9 10 6 21 -4 16 -2 19 11 14 9 -3 16 -1 16 5 0 6 -9 11 -19 11 -29 0 -34 17
-15 42 14 19 28 23 76 25 56 2 58 1 58 -22z m425 -11 c-23 -17 -32 -10 -15 11
7 8 17 12 23 8 6 -4 3 -11 -8 -19z m849 17 c4 -5 -3 -7 -14 -4 -23 6 -26 13
-6 13 8 0 17 -4 20 -9z m-917 -27 c-9 -9 -28 6 -21 18 4 6 10 6 17 -1 6 -6 8
-13 4 -17z m-257 6 c0 -5 -4 -10 -10 -10 -5 0 -10 5 -10 10 0 6 5 10 10 10 6
0 10 -4 10 -10z m1515 -20 c3 -5 1 -10 -4 -10 -6 0 -11 5 -11 10 0 6 2 10 4
10 3 0 8 -4 11 -10z m262 -12 c-3 -8 -6 -5 -6 6 -1 11 2 17 5 13 3 -3 4 -12 1
-19z m-1807 3 c0 -5 -7 -11 -15 -15 -8 -3 -15 -12 -15 -20 0 -8 -5 -18 -12
-22 -6 -4 -8 -3 -4 4 3 6 -6 15 -21 20 -18 7 -22 11 -10 11 9 1 17 5 17 10 0
8 10 12 53 20 4 0 7 -3 7 -8z m1330 5 c0 -3 -4 -8 -10 -11 -5 -3 -10 -1 -10 4
0 6 5 11 10 11 6 0 10 -2 10 -4z m-695 -26 c-3 -5 -11 -10 -16 -10 -6 0 -7 5
-4 10 3 6 11 10 16 10 6 0 7 -4 4 -10z m885 -45 c0 -8 -4 -15 -10 -15 -5 0
-10 7 -10 15 0 8 5 15 10 15 6 0 10 -7 10 -15z m-1600 -9 c0 -3 -4 -8 -10 -11
-5 -3 -10 -1 -10 4 0 6 5 11 10 11 6 0 10 -2 10 -4z m1584 -37 c-3 -5 -10 -7
-15 -3 -5 3 -7 10 -3 15 3 5 10 7 15 3 5 -3 7 -10 3 -15z m-1734 -3 c0 -3 -4
-8 -10 -11 -5 -3 -10 -1 -10 4 0 6 5 11 10 11 6 0 10 -2 10 -4z m145 -6 c3 -5
-3 -10 -14 -10 -12 0 -21 5 -21 10 0 6 6 10 14 10 8 0 18 -4 21 -10z m-220
-20 c3 -6 -4 -10 -17 -10 -18 0 -20 2 -8 10 19 12 18 12 25 0z m1625 -89 c0
-5 -13 -22 -28 -39 -20 -22 -33 -28 -43 -21 -8 5 -29 9 -48 9 -19 0 -31 3 -28
7 4 3 2 12 -5 20 -6 7 -8 16 -4 20 3 4 13 -2 21 -13 14 -18 16 -18 28 -2 7 9
29 18 48 21 18 2 40 5 47 5 6 1 12 -2 12 -7z m-1010 -51 c0 -5 -4 -10 -10 -10
-5 0 -10 5 -10 10 0 6 5 10 10 10 6 0 10 -4 10 -10z m455 0 c3 -5 -3 -10 -15
-10 -12 0 -18 5 -15 10 3 6 10 10 15 10 5 0 12 -4 15 -10z m225 -23 c14 -6 28
-10 31 -9 14 2 156 2 179 -1 16 -2 24 -8 21 -17 -2 -8 -6 -27 -9 -42 -5 -31
-19 -37 -29 -12 -3 9 0 20 8 24 19 13 10 18 -40 22 -29 2 -45 -1 -48 -9 -3 -9
6 -13 25 -13 27 0 48 -20 35 -33 -10 -11 -61 15 -73 38 -11 20 -16 22 -33 13
-14 -7 -22 -7 -24 -1 -2 6 -29 -3 -60 -19 -40 -21 -59 -26 -67 -18 -8 8 -4 12
12 16 28 8 28 12 -5 41 -23 19 -26 25 -13 33 15 9 45 5 90 -13z m-1080 -31
c-13 -13 -35 7 -25 24 5 8 11 8 21 -1 10 -8 12 -15 4 -23z m427 -12 c2 -6 -6
-10 -19 -9 -12 1 -24 7 -26 14 -3 8 4 12 19 9 12 -1 24 -8 26 -14z m943 -4 c0
-5 -4 -10 -10 -10 -5 0 -10 5 -10 10 0 6 5 10 10 10 6 0 10 -4 10 -10z m720
-22 c0 -18 -2 -20 -9 -8 -6 8 -7 18 -5 22 9 14 14 9 14 -14z m-953 -18 c5 -32
8 -34 43 -22 18 7 28 7 25 2 -4 -6 3 -10 14 -10 12 0 21 -5 21 -11 0 -8 -11
-9 -32 -5 -23 4 -28 3 -18 -3 8 -6 11 -13 8 -16 -4 -4 -13 -3 -20 1 -13 9 -29
13 -60 16 -10 1 -18 8 -18 15 0 7 -9 13 -21 13 -27 0 -20 21 12 37 31 16 41
12 46 -17z m1098 11 c-3 -12 -1 -19 7 -18 7 0 28 -1 46 -1 29 -2 31 -4 20 -22
-8 -12 -16 -16 -22 -10 -5 5 -17 5 -29 -1 -10 -6 -28 -9 -38 -6 -10 3 -19 1
-19 -4 0 -15 -17 -10 -24 7 -9 22 14 50 25 32 6 -9 9 -4 9 15 0 18 5 27 16 27
11 0 13 -6 9 -19z m-2430 -12 c5 -5 17 -9 27 -9 10 0 18 -5 18 -11 0 -23 30
-41 59 -34 23 5 32 2 40 -14 16 -29 13 -41 -10 -41 -29 0 -90 30 -83 41 3 5
-3 6 -12 2 -13 -5 -16 -2 -12 8 4 9 -2 21 -14 28 -11 7 -17 8 -13 2 3 -6 -1
-11 -9 -11 -9 0 -16 4 -16 9 0 5 -11 12 -25 15 -14 4 -25 13 -25 22 0 12 7 14
33 9 17 -4 36 -11 42 -16z m375 -4 c16 -19 10 -19 -26 0 -25 13 -26 15 -8 15
12 0 27 -7 34 -15z m402 -20 c-3 -11 -7 -14 -9 -8 -3 9 -9 9 -22 1 -23 -14
-68 -3 -68 17 0 12 11 15 52 13 46 -3 51 -5 47 -23z m-447 -45 c4 -6 11 -8 16
-5 5 4 9 1 9 -4 0 -6 -11 -11 -25 -11 -16 0 -25 6 -25 15 0 17 16 20 25 5z
m135 0 c8 -5 11 -10 5 -10 -5 0 -3 -5 5 -10 12 -8 9 -10 -12 -10 -36 0 -58 10
-58 26 0 16 38 19 60 4z m746 -17 c-3 -8 -6 -17 -6 -19 0 -2 -4 -4 -10 -4 -5
0 -10 11 -10 25 0 18 4 23 16 18 8 -3 13 -12 10 -20z m-557 5 c-5 -38 2 -68
16 -68 8 0 15 -6 16 -12 0 -10 2 -10 6 0 2 6 9 10 13 7 17 -11 -30 -46 -51
-40 -22 7 -52 -12 -43 -26 3 -5 17 -6 30 -3 18 5 34 0 54 -15 16 -11 34 -21
40 -21 19 0 10 -29 -11 -35 -13 -5 -18 -12 -14 -22 4 -13 3 -14 -10 -3 -15 12
-46 7 -44 -7 4 -21 -2 -33 -16 -33 -17 0 -20 16 -6 25 5 3 9 18 9 33 0 15 1
34 3 42 6 21 -140 25 -148 4 -7 -19 -32 -18 -39 1 -4 10 -14 13 -29 9 -16 -4
-24 0 -29 13 -4 10 -2 19 3 21 6 2 11 11 11 19 0 13 -3 13 -15 3 -13 -11 -15
-8 -15 16 0 20 3 25 9 15 7 -10 11 -9 22 6 12 17 25 19 94 18 108 -2 117 -3
110 -15 -3 -5 -1 -10 4 -10 14 0 14 27 1 35 -6 4 -4 16 6 31 18 27 26 31 23
12z m94 -11 c-14 -6 -31 -6 -50 1 -25 9 -23 9 22 9 40 0 45 -2 28 -10z m551
-2 c3 -8 1 -15 -3 -15 -5 0 -11 7 -15 15 -3 8 -1 15 3 15 5 0 11 -7 15 -15z
m1070 0 c3 -8 1 -15 -4 -15 -6 0 -10 7 -10 15 0 8 2 15 4 15 2 0 6 -7 10 -15z
m-1454 -11 c0 -8 -9 -14 -20 -14 -11 0 -20 6 -20 13 0 7 9 13 20 14 11 1 20
-4 20 -13z m251 -47 c8 -51 -17 -59 -30 -10 -6 20 -8 40 -5 45 11 18 29 0 35
-35z m67 15 c7 -5 10 -16 6 -25 -3 -9 -2 -17 4 -17 5 0 12 7 16 15 7 19 52 20
59 1 8 -20 -18 -39 -42 -31 -11 3 -30 1 -42 -5 -29 -16 -43 -1 -30 33 8 21 7
25 -4 20 -8 -3 -15 0 -15 6 0 13 29 14 48 3z m-883 -32 c3 -5 1 -10 -4 -10 -6
0 -11 5 -11 10 0 6 2 10 4 10 3 0 8 -4 11 -10z m-35 -40 c0 -5 -4 -10 -10 -10
-5 0 -10 5 -10 10 0 6 5 10 10 10 6 0 10 -4 10 -10z m1581 -4 c5 3 9 0 9 -5 0
-6 -9 -11 -20 -11 -20 0 -26 11 -13 24 4 4 9 2 11 -3 2 -6 8 -9 13 -5z m-1135
-33 c-4 -4 -12 -1 -19 7 -9 10 -9 11 1 6 7 -4 12 -2 13 6 0 11 2 11 6 0 3 -7
2 -16 -1 -19z m1101 1 c-3 -3 -12 -4 -19 -1 -8 3 -5 6 6 6 11 1 17 -2 13 -5z
m708 -45 c-10 -15 -25 -10 -19 6 4 8 10 12 15 9 5 -3 7 -10 4 -15z m-3185 7
c0 -3 -4 -8 -10 -11 -5 -3 -10 -1 -10 4 0 6 5 11 10 11 6 0 10 -2 10 -4z
m3364 -11 c4 -11 -1 -15 -19 -15 -16 0 -25 6 -25 15 0 8 9 15 19 15 10 0 21
-7 25 -15z m-1684 -42 c0 -26 -14 -29 -57 -12 -27 10 -27 11 -9 25 11 8 16 14
10 14 -5 0 -3 4 5 9 20 13 51 -9 51 -36z m27 -5 c-3 -7 -5 -2 -5 12 0 14 2 19
5 13 2 -7 2 -19 0 -25z m-1012 -58 c3 -5 1 -10 -4 -10 -6 0 -11 5 -11 10 0 6
2 10 4 10 3 0 8 -4 11 -10z m-151 -21 c-3 -5 -10 -7 -15 -3 -5 3 -7 10 -3 15
3 5 10 7 15 3 5 -3 7 -10 3 -15z m2436 -10 c0 -5 6 -9 14 -9 16 0 29 -27 20
-42 -3 -5 -16 -7 -27 -4 -12 3 -28 0 -36 -7 -12 -10 -13 -8 -7 13 5 14 8 35 8
47 0 14 5 20 14 16 8 -3 14 -9 14 -14z m-2065 -19 c3 -5 2 -10 -4 -10 -5 0
-13 5 -16 10 -3 6 -2 10 4 10 5 0 13 -4 16 -10z m-432 -17 c-7 -2 -21 -2 -30
0 -10 3 -4 5 12 5 17 0 24 -2 18 -5z m2553 -100 l-15 -28 -7 33 c-4 20 -13 32
-23 32 -13 1 -13 3 3 15 18 13 22 13 38 -5 17 -18 17 -22 4 -47z m-3176 18
c13 -13 13 -14 -3 -8 -10 4 -23 7 -28 7 -6 0 -7 5 -4 10 3 6 1 10 -4 10 -6 0
-11 5 -11 11 0 11 17 1 50 -30z m1900 14 c0 -8 -7 -15 -15 -15 -8 0 -15 6 -15
13 0 8 -4 7 -10 -3 -5 -8 -10 -10 -10 -4 0 16 11 24 32 24 10 0 18 -7 18 -15z
m2120 -5 c0 -5 -4 -10 -10 -10 -5 0 -10 5 -10 10 0 6 5 10 10 10 6 0 10 -4 10
-10z m-150 -25 c0 -9 6 -12 15 -9 10 4 15 0 15 -13 0 -16 -5 -19 -31 -15 -19
3 -26 8 -19 12 8 5 7 9 -5 14 -14 5 -15 9 -5 21 14 17 30 11 30 -10z m-3270
-5 c0 -11 -2 -20 -4 -20 -2 0 -6 9 -9 20 -3 11 -1 20 4 20 5 0 9 -9 9 -20z
m-103 -22 c-3 -8 -6 -5 -6 6 -1 11 2 17 5 13 3 -3 4 -12 1 -19z m-727 -21 c9
-3 5 -6 -10 -6 -20 -1 -26 4 -26 20 0 16 2 18 11 6 5 -7 17 -16 25 -20z m3531
-10 c-13 -13 -26 -3 -16 12 3 6 11 8 17 5 6 -4 6 -10 -1 -17z m-2489 -19 c4
-31 -13 -43 -18 -13 -4 21 4 51 10 44 2 -2 6 -16 8 -31z m2265 16 c-3 -3 -12
-4 -19 -1 -8 3 -5 6 6 6 11 1 17 -2 13 -5z m123 -9 c0 -8 -4 -15 -10 -15 -5 0
-10 7 -10 15 0 8 5 15 10 15 6 0 10 -7 10 -15z m146 -12 c-10 -10 -19 5 -10
18 6 11 8 11 12 0 2 -7 1 -15 -2 -18z m-3513 10 c-7 -2 -19 -2 -25 0 -7 3 -2
5 12 5 14 0 19 -2 13 -5z m3476 -26 c0 -9 -2 -9 -6 1 -6 15 -34 16 -30 1 1 -6
-4 -14 -10 -16 -16 -6 -17 19 -1 35 13 13 48 -2 47 -21z m-2839 -57 c0 -5 -5
-10 -11 -10 -5 0 -7 5 -4 10 3 6 8 10 11 10 2 0 4 -4 4 -10z m-940 -480 c0 -5
-4 -10 -10 -10 -5 0 -10 5 -10 10 0 6 5 10 10 10 6 0 10 -4 10 -10z m4760
-427 c0 -7 -4 -13 -8 -13 -12 0 -32 23 -32 37 0 11 4 11 20 1 11 -7 20 -18 20
-25z m56 -138 c-3 -9 -10 -13 -16 -10 -6 4 -5 11 3 20 15 16 22 11 13 -10z
m-36 -275 c0 -5 -5 -10 -11 -10 -5 0 -7 5 -4 10 3 6 8 10 11 10 2 0 4 -4 4
-10z m0 -110 c0 -5 -5 -10 -11 -10 -5 0 -7 5 -4 10 3 6 8 10 11 10 2 0 4 -4 4
-10z m-30 -21 c0 -11 -30 -12 -48 0 -9 5 -3 8 17 9 17 0 31 -4 31 -9z m-4670
-134 c0 -9 -10 -19 -23 -24 -13 -5 -29 -16 -36 -25 -7 -9 -18 -16 -23 -16 -10
0 63 79 75 79 4 1 7 -6 7 -14z m920 -135 c0 -5 -2 -10 -4 -10 -3 0 -8 5 -11
10 -3 6 -1 10 4 10 6 0 11 -4 11 -10z m-200 -114 c0 -7 -9 -16 -20 -19 -22 -6
-29 18 -7 26 21 9 27 7 27 -7z m230 -186 c8 -5 11 -10 5 -10 -5 0 -17 5 -25
10 -8 5 -10 10 -5 10 6 0 17 -5 25 -10z m-130 -164 c0 -3 -4 -8 -10 -11 -5 -3
-10 -1 -10 4 0 6 5 11 10 11 6 0 10 -2 10 -4z m-236 -68 c3 -13 6 -33 6 -45 0
-19 -3 -21 -22 -14 -13 4 -29 6 -35 4 -18 -6 -16 12 2 27 8 7 15 21 15 31 0
27 26 24 34 -3z m216 -9 c0 -7 -7 -17 -16 -24 -13 -9 -14 -16 -6 -32 9 -16 7
-24 -8 -41 -11 -12 -20 -28 -20 -37 0 -9 -6 -15 -12 -12 -8 2 -12 15 -10 30 4
29 -3 32 -57 21 -33 -7 -44 -34 -13 -34 15 -1 15 -2 -2 -15 -11 -8 -23 -15
-28 -15 -16 0 -20 53 -8 91 12 35 15 38 30 24 17 -15 93 -18 84 -3 -3 4 2 8
10 8 10 0 16 9 16 25 0 18 5 25 20 25 11 0 20 -5 20 -11z m-216 -84 c3 -8 1
-15 -4 -15 -6 0 -8 -16 -4 -39 5 -32 3 -41 -15 -53 -11 -8 -19 -17 -16 -20 3
-2 -1 -5 -9 -5 -9 0 -12 7 -9 21 3 12 6 40 7 64 3 52 36 83 50 47z m-91 -11
c7 -7 -17 -34 -31 -34 -12 0 -23 26 -15 34 8 8 38 8 46 0z m32 -44 c-3 -5 -16
-10 -28 -10 -18 0 -19 2 -7 10 20 13 43 13 35 0z m-19 -88 c1 -12 -2 -22 -7
-22 -4 0 -7 -12 -6 -27 2 -21 -4 -28 -25 -34 -16 -4 -28 -3 -28 2 0 5 4 9 10
9 5 0 6 8 3 17 -4 11 -8 12 -11 5 -2 -7 -12 -12 -23 -12 -24 0 -25 -20 -1 -21
11 0 12 -2 4 -6 -13 -5 -42 14 -42 28 0 5 11 11 25 15 25 6 29 13 26 46 -1 11
7 18 26 21 41 6 48 3 49 -21z m20 -49 c-10 -10 -19 5 -10 18 6 11 8 11 12 0 2
-7 1 -15 -2 -18z m-101 -63 c3 -5 1 -10 -4 -10 -6 0 -11 5 -11 10 0 6 2 10 4
10 3 0 8 -4 11 -10z m215 6 c0 -9 -30 -14 -35 -6 -4 6 3 10 14 10 12 0 21 -2
21 -4z m-27 -39 c3 -7 -1 -21 -9 -32 -8 -10 -15 -17 -15 -14 -8 31 -6 59 6 59
7 0 15 -6 18 -13z m-223 -6 c0 -5 -9 -7 -20 -4 -11 3 -20 7 -20 9 0 2 9 4 20
4 11 0 20 -4 20 -9z m296 -22 c0 -8 -2 -18 -4 -23 -5 -10 -22 14 -22 32 0 18
25 9 26 -9z m-313 -13 c4 -10 1 -13 -8 -9 -8 3 -12 9 -9 14 7 12 11 11 17 -5z
m232 -96 c-3 -5 -12 -10 -18 -10 -7 0 -6 4 3 10 19 12 23 12 15 0z m3075 -320
c0 -5 -4 -10 -10 -10 -5 0 -10 5 -10 10 0 6 5 10 10 10 6 0 10 -4 10 -10z"/>
<path d="M2715 4380 c-3 -5 -1 -10 4 -10 6 0 11 5 11 10 0 6 -2 10 -4 10 -3 0
-8 -4 -11 -10z"/>
<path d="M1540 4289 c0 -5 5 -7 10 -4 6 3 10 8 10 11 0 2 -4 4 -10 4 -5 0 -10
-5 -10 -11z"/>
<path d="M1980 4213 c0 -15 19 -37 26 -31 3 4 -1 14 -10 23 -9 9 -16 13 -16 8z"/>
<path d="M1922 4178 c5 -13 48 -22 48 -9 0 9 -24 21 -42 21 -5 0 -8 -5 -6 -12z"/>
<path d="M2700 4209 c0 -5 5 -7 10 -4 6 3 10 8 10 11 0 2 -4 4 -10 4 -5 0 -10
-5 -10 -11z"/>
<path d="M2942 3959 c-112 -22 -208 -93 -257 -189 l-25 -50 85 0 85 0 0 -60 0
-60 -95 0 -95 0 0 -45 0 -45 95 0 95 0 0 -60 0 -60 -96 0 -97 0 5 -88 c7 -116
40 -192 114 -262 80 -76 129 -95 244 -95 82 0 103 4 151 26 79 37 133 90 171
167 29 58 33 79 36 159 l4 93 -201 0 -201 0 0 60 0 60 200 0 200 0 0 45 0 45
-200 0 -200 0 0 60 0 60 190 0 c105 0 190 3 190 8 0 22 -65 115 -105 150 -76
67 -197 100 -293 81z"/>
<path d="M3476 3696 c3 -9 18 -16 32 -16 29 0 20 14 -15 25 -18 5 -22 3 -17
-9z"/>
<path d="M570 3558 c-133 -47 -190 -124 -190 -259 0 -77 23 -148 65 -197 20
-23 83 -78 139 -121 131 -101 162 -136 170 -192 12 -84 -18 -132 -71 -114 -33
12 -41 36 -42 133 l-1 72 -129 0 -128 0 -6 -46 c-8 -71 8 -170 38 -230 51
-104 150 -149 310 -142 203 9 305 116 305 322 -1 91 -25 164 -76 230 -16 21
-88 82 -160 136 -72 55 -134 106 -138 115 -10 27 -7 80 6 93 7 7 25 12 40 12
33 0 48 -28 48 -91 l0 -39 140 0 c161 0 150 -9 129 105 -28 154 -119 226 -294
232 -74 3 -102 0 -155 -19z"/>
<path d="M1296 3561 c-104 -35 -163 -115 -185 -252 -6 -35 -11 -172 -11 -304
0 -314 15 -389 92 -466 59 -59 108 -74 238 -74 106 0 120 2 172 28 118 58 158
143 158 335 l0 112 -135 0 -135 0 0 -107 c0 -127 -11 -157 -57 -161 -61 -6
-63 5 -63 354 0 293 1 312 19 328 27 25 72 17 88 -14 7 -15 13 -63 13 -117 l0
-93 136 0 136 0 -4 123 c-5 142 -22 192 -83 246 -63 55 -117 74 -225 78 -74 2
-108 -1 -154 -16z"/>
<path d="M2200 3558 c-25 -13 -55 -38 -67 -57 l-23 -34 0 52 0 52 -132 -3
-133 -3 0 -505 0 -505 133 -3 132 -3 0 385 c0 444 -13 398 114 418 l76 12 0
108 0 108 -28 0 c-15 0 -48 -10 -72 -22z"/>
<path d="M4056 3560 c-36 -18 -62 -45 -78 -80 -4 -8 -7 9 -7 38 l-1 52 -130 0
-130 0 0 -550 0 -550 130 0 130 0 0 415 c0 456 2 478 55 491 19 5 32 1 43 -10
15 -15 17 -62 20 -456 l3 -440 129 0 129 0 3 423 c3 431 5 455 42 479 18 12
44 9 60 -8 14 -14 16 -69 16 -455 l0 -439 134 0 134 0 4 408 c2 224 1 438 -4
475 -18 154 -84 224 -213 226 -77 1 -119 -15 -160 -61 -33 -36 -39 -39 -47
-23 -43 75 -177 109 -262 65z"/>
<path d="M2400 3398 c0 -199 12 -265 67 -377 75 -151 247 -283 411 -314 l62
-12 0 -47 0 -47 -47 -3 -48 -3 0 -60 0 -60 158 -3 157 -3 0 66 0 65 -50 0 -50
0 0 50 c0 46 2 50 24 50 42 0 178 48 231 81 121 75 218 199 261 333 25 75 27
95 28 266 l1 185 -62 3 -63 3 0 -173 c0 -114 -5 -190 -14 -224 -35 -132 -135
-251 -261 -311 -68 -32 -88 -37 -174 -41 -154 -7 -264 34 -368 139 -109 109
-143 217 -143 457 l0 152 -60 0 -60 0 0 -172z"/>
<path d="M4868 3436 c-15 -11 -16 -25 -11 -105 5 -78 8 -91 22 -86 13 4 13 2
-1 -9 -19 -14 -25 -76 -8 -76 6 0 19 9 30 20 11 11 31 22 46 26 14 4 28 13 31
21 11 28 -52 217 -69 207 -6 -4 -13 -2 -17 4 -4 7 -12 6 -23 -2z m27 -226 c3
-5 1 -10 -4 -10 -6 0 -11 5 -11 10 0 6 2 10 4 10 3 0 8 -4 11 -10z"/>
<path d="M2233 3243 c-10 -4 -13 -101 -13 -437 l0 -433 68 -5 c85 -6 162 -39
206 -88 l34 -38 23 24 c21 22 113 72 162 88 15 5 17 21 17 146 0 81 -4 140 -9
140 -18 0 -135 73 -185 114 -63 54 -127 136 -171 225 -35 70 -75 201 -75 248
0 17 -5 23 -22 22 -13 0 -29 -3 -35 -6z"/>
<path d="M4995 3141 c-3 -5 -1 -12 5 -16 5 -3 10 1 10 9 0 18 -6 21 -15 7z"/>
<path d="M4986 3094 c-7 -17 9 -44 26 -44 13 0 6 53 -8 57 -6 2 -14 -4 -18
-13z"/>
<path d="M4876 3051 c4 -20 3 -31 -5 -31 -22 0 -10 -24 35 -66 32 -29 45 -48
40 -59 -5 -13 -1 -15 14 -10 15 5 20 2 20 -13 0 -11 -7 -25 -15 -32 -16 -14
-20 -30 -7 -30 5 0 15 12 22 26 10 17 20 24 32 21 11 -3 22 2 28 13 16 29 12
46 -12 58 l-23 11 23 0 c24 1 24 1 2 81 -7 24 -7 24 -14 -7 -4 -18 -12 -33
-18 -33 -6 0 -8 -11 -6 -25 7 -32 -7 -32 -55 0 -38 26 -47 49 -24 59 10 5 10
7 0 12 -7 3 -13 11 -13 19 0 7 -7 18 -15 25 -13 11 -14 8 -9 -19z m159 -141
c3 -5 1 -10 -4 -10 -6 0 -11 5 -11 10 0 6 2 10 4 10 3 0 8 -4 11 -10z"/>
<path d="M3505 2796 c-67 -68 -109 -102 -162 -129 l-73 -38 0 -135 0 -134
-132 -1 -133 -1 45 -15 c51 -18 128 -68 149 -96 12 -17 15 -16 48 23 19 22 58
53 87 68 45 24 62 27 156 28 l105 1 2 262 c2 143 2 261 0 260 -1 0 -42 -42
-92 -93z m-55 -165 c0 -5 -7 -11 -15 -15 -9 -3 -15 0 -15 9 0 8 7 15 15 15 8
0 15 -4 15 -9z"/>
<path d="M5020 2800 c0 -5 5 -10 10 -10 6 0 10 5 10 10 0 6 -4 10 -10 10 -5 0
-10 -4 -10 -10z"/>
<path d="M1840 1810 l0 -630 135 0 135 0 0 48 0 47 20 -33 c33 -55 75 -74 148
-69 85 6 131 37 169 114 l28 58 0 370 c0 333 -2 375 -18 417 -44 114 -188 163
-301 103 l-46 -24 0 114 0 115 -135 0 -135 0 0 -630z m364 228 c14 -19 16 -67
16 -324 0 -278 -1 -304 -18 -324 -24 -30 -68 -21 -82 16 -6 14 -10 154 -10
317 0 318 3 337 55 337 13 0 31 -10 39 -22z"/>
<path d="M4020 2324 l0 -36 25 16 c13 9 46 25 72 36 l48 19 -72 0 -73 1 0 -36z"/>
<path d="M2749 2247 c-125 -35 -173 -103 -181 -252 l-3 -60 125 0 125 0 3 50
c4 57 15 75 48 75 37 0 54 -36 54 -116 l0 -72 -107 -36 c-121 -42 -169 -70
-207 -118 -68 -90 -76 -329 -15 -455 31 -63 77 -88 166 -88 78 0 103 14 144
80 l19 30 0 -52 0 -53 130 0 131 0 -3 448 c-3 436 -4 448 -25 487 -50 94 -132
137 -268 142 -53 2 -109 -3 -136 -10z m169 -677 c-2 -142 -6 -172 -20 -186
-22 -22 -61 -12 -76 21 -17 37 -15 218 2 260 13 30 66 75 89 75 5 0 7 -76 5
-170z"/>
<path d="M3405 2248 c-50 -17 -94 -68 -113 -128 -14 -47 -17 -100 -17 -345 0
-325 6 -364 68 -422 48 -46 76 -57 142 -57 68 1 112 19 145 61 l21 28 -5 -48
c-12 -100 -53 -134 -155 -124 -31 2 -76 14 -99 26 -23 12 -43 21 -46 21 -8 0
-86 -135 -86 -147 0 -7 29 -26 64 -43 49 -24 84 -33 151 -39 183 -17 319 21
377 104 55 79 58 114 58 637 l0 478 -130 0 -130 0 0 -52 0 -53 -23 39 c-12 21
-38 47 -57 57 -38 21 -116 24 -165 7z m228 -228 c16 -31 18 -60 15 -262 -3
-218 -4 -228 -25 -249 -33 -33 -69 -20 -83 32 -17 62 -9 481 9 503 23 28 63
16 84 -24z"/>
<path d="M4167 2237 c-120 -42 -176 -118 -177 -240 0 -144 34 -197 220 -340
119 -91 140 -121 140 -197 0 -65 -13 -83 -57 -78 -38 4 -53 38 -53 126 l0 73
-127 -3 -128 -3 1 -95 c1 -75 6 -106 24 -148 49 -113 161 -169 317 -160 198
12 302 130 291 331 -8 145 -54 211 -241 349 -59 44 -112 88 -117 98 -15 28
-12 86 4 100 40 32 86 -12 86 -82 l0 -38 135 0 c101 0 135 3 135 13 0 41 -24
145 -40 176 -24 48 -76 96 -125 117 -24 10 -77 18 -130 21 -76 3 -101 0 -158
-20z"/>
</g>
</svg>
